<svg xmlns="http://www.w3.org/2000/svg" viewBox="0 0 20 20" fill="currentColor">
    <path id="play-speed" d="M10.823,2.046v1.6a6.41,6.41,0,0,1,0,12.723v1.6a8.012,8.012,0,0,0,0-15.944v.016M4.95,16.219a8.007,8.007,0,0,0,4.27,1.811v-1.6A6.411,6.411,0,0,1,6.1,15.122l-1.146,1.1M6.1,5A6.406,6.406,0,0,1,9.221,3.656v-1.6A7.874,7.874,0,0,0,4.95,3.817L6.1,5m-1.13,1.09L3.821,4.946A7.92,7.92,0,0,0,2.05,9.217h1.6A6.423,6.423,0,0,1,4.966,6.092M3.66,10.819h-1.6a8.044,8.044,0,0,0,1.771,4.27l1.138-1.146A6.411,6.411,0,0,1,3.66,10.819m4.759,2.8,4.807-3.605L8.42,6.413Z"/>
  </svg>