<svg viewBox="0 0 500 500" fill="none" xmlns="http://www.w3.org/2000/svg"
  xmlns:xlink="http://www.w3.org/1999/xlink">
  <defs>
    <linearGradient id="myGradient" x1="0%" y1="0%" x2="100%" y2="0%">
      <stop offset="0%" stop-color="rgba(155, 55, 60, 0.6)" />
      <stop offset="100%" stop-color="rgba(155, 55, 60, 0.9)" />
    </linearGradient>
    <filter id="shadow">
      <feDropShadow dx="15" dy="15" stdDeviation="0" flood-color="tomato" flood-opacity="0.9"></feDropShadow>
    </filter>
  </defs>

  <path class="logo-bg" fill="url(#myGradient)" filter="url(#shadow)" d="M5 5h480v480h-480z" />
  <path id="sign" fill="#fff"
    d="M344.574 381.088c-4.664 18.899-18.507 25.103-35.525 27.393-31.959 4.301-64.024 4.639-96.161 3.019-17.475-.88-34.869-2.3-51.61-7.915-8.304-2.786-8.285-2.842-8.285-11.3v-38.766c8.737 1.973 17.018 4.794 25.486 5.566 20.353 1.855 40.778 3.233 61.203 3.85 12.086.366 24.296-.488 36.32-1.902 9.715-1.142 13.892-6.929 13.649-15.958-.177-6.544-3.096-11.371-9.492-13.158-6.345-1.773-12.992-3.063-19.557-3.335-17.63-.73-35.304-.449-52.926-1.297-7.901-.38-15.846-1.996-23.544-3.945-11.515-2.915-17.34-10.152-18.459-22.029-.546-5.789-.358-11.644-.73-17.455-.172-2.686.996-3.778 3.347-4.647 10.291-3.804 20.522-7.775 30.767-11.704 1.029-.395 2.009-.922 2.543-1.17-9.228-2.62-18.7-4.924-27.905-8.02-11.147-3.75-18.689-11.797-22.013-22.888-2.942-9.817-5.422-19.956-6.458-30.121-2.201-21.583-1.477-43.145 2.524-64.614 4.433-23.794 19.665-34.773 42.333-38.523 24.634-4.076 49.355-4.505 74.167-3.236 9.769.499 19.506 1.602 30.175 2.508 0-2.515.132-5.251-.026-7.97-.439-7.573 2.976-13.5 9.609-16.04 9.073-3.473 18.593-6.21 28.164-7.808 7.416-1.239 15.205-.248 23.16-.248v32.216c-5.658 0-11.438-.379-17.143.109-5.401.462-10.939 1.213-16.026 2.968-5.667 1.955-5.876 4.53-2.007 8.934 6.509 7.409 9.205 16.504 10.817 25.903 5.024 29.293 4.878 58.576-.371 87.866-3.6 20.088-15.528 32.053-35.201 35.845-11.538 2.224-23.33 3.603-35.067 4.208-13.76.71-27.586.167-41.694.167v21.762c1.645 0 3.385-.022 5.124.003 20.647.3 41.312.2 61.934 1.084 10.243.44 20.461 2.395 30.599 4.187 17.061 3.016 26.283 13.997 29.243 30.547 3.316 18.534 3.495 37.078-.964 55.914Zm-88.992-234.417c-7.625-.407-15.337-1.747-22.857-1.038-19.472 1.837-21.271 5.68-23.56 19.344-2.155 12.859-1.955 25.853.664 38.71 1.359 6.672 4.659 11.659 11.745 13.389 11.499 2.809 22.981 3.05 34.583.486 7.042-1.557 11.005-5.761 12.373-12.659 2.981-15.034 2.891-30.077.002-45.107-1.316-6.841-5.067-11.461-12.95-13.125Z" />

  <circle cx="0" cy="0" transform-origin="50% 50%" r="4" fill="#ff6347">
    <animateMotion dur="50s" repeatCount="indefinite">
      <mpath xlink:href="#sign" />
    </animateMotion>
  </circle>


</svg>